  0
SECTION
  2
HEADER
  9
$ACADVER
  1
AC1009
  9
$DWGCODEPAGE
  3
ansi_1252
  9
$INSBASE
 10
0.0
 20
0.0
 30
0.0
  9
$EXTMIN
 10
0.0
 20
0.0
 30
0.0
  9
$EXTMAX
 10
212.8460969082651
 20
245.0000000000001
 30
0.0
  9
$LIMMIN
 10
0.0
 20
0.0
  9
$LIMMAX
 10
420.0
 20
297.0
  9
$ORTHOMODE
 70
     0
  9
$REGENMODE
 70
     1
  9
$FILLMODE
 70
     1
  9
$QTEXTMODE
 70
     0
  9
$MIRRTEXT
 70
     0
  9
$DRAGMODE
 70
     2
  9
$LTSCALE
 40
1.0
  9
$OSMODE
 70
   511
  9
$ATTMODE
 70
     1
  9
$TEXTSIZE
 40
2.5
  9
$TRACEWID
 40
1.0
  9
$TEXTSTYLE
  7
STANDARD
  9
$CLAYER
  8
0
  9
$CELTYPE
  6
BYLAYER
  9
$CECOLOR
 62
   256
  9
$DIMSCALE
 40
1.0
  9
$DIMASZ
 40
2.5
  9
$DIMEXO
 40
0.625
  9
$DIMDLI
 40
3.75
  9
$DIMRND
 40
0.0
  9
$DIMDLE
 40
0.0
  9
$DIMEXE
 40
1.25
  9
$DIMTP
 40
0.0
  9
$DIMTM
 40
0.0
  9
$DIMTXT
 40
2.5
  9
$DIMCEN
 40
2.5
  9
$DIMTSZ
 40
0.0
  9
$DIMTOL
 70
     0
  9
$DIMLIM
 70
     0
  9
$DIMTIH
 70
     0
  9
$DIMTOH
 70
     0
  9
$DIMSE1
 70
     0
  9
$DIMSE2
 70
     0
  9
$DIMTAD
 70
     1
  9
$DIMZIN
 70
     8
  9
$DIMBLK
  1

  9
$DIMASO
 70
     1
  9
$DIMSHO
 70
     1
  9
$DIMPOST
  1

  9
$DIMAPOST
  1

  9
$DIMALT
 70
     0
  9
$DIMALTD
 70
     3
  9
$DIMALTF
 40
0.03937007874016
  9
$DIMLFAC
 40
1.0
  9
$DIMTOFL
 70
     1
  9
$DIMTVP
 40
0.0
  9
$DIMTIX
 70
     0
  9
$DIMSOXD
 70
     0
  9
$DIMSAH
 70
     0
  9
$DIMBLK1
  1

  9
$DIMBLK2
  1

  9
$DIMSTYLE
  2
ISO-25
  9
$DIMCLRD
 70
     0
  9
$DIMCLRE
 70
     0
  9
$DIMCLRT
 70
     0
  9
$DIMTFAC
 40
1.0
  9
$DIMGAP
 40
0.625
  9
$LUNITS
 70
     2
  9
$LUPREC
 70
     3
  9
$SKETCHINC
 40
1.0
  9
$FILLETRAD
 40
10.0
  9
$AUNITS
 70
     0
  9
$AUPREC
 70
     0
  9
$MENU
  1
.
  9
$ELEVATION
 40
0.0
  9
$PELEVATION
 40
0.0
  9
$THICKNESS
 40
0.0
  9
$LIMCHECK
 70
     0
  9
$CHAMFERA
 40
10.0
  9
$CHAMFERB
 40
10.0
  9
$SKPOLY
 70
     0
  9
$TDCREATE
 40
2455022.67902618
  9
$TDUPDATE
 40
2458765.392662211
  9
$TDINDWG
 40
0.000000081
  9
$TDUSRTIMER
 40
0.0002554167
  9
$USRTIMER
 70
     1
  9
$ANGBASE
 50
0.0
  9
$ANGDIR
 70
     0
  9
$PDMODE
 70
     0
  9
$PDSIZE
 40
0.0
  9
$PLINEWID
 40
0.0
  9
$COORDS
 70
     1
  9
$SPLFRAME
 70
     0
  9
$SPLINETYPE
 70
     6
  9
$SPLINESEGS
 70
     8
  9
$ATTDIA
 70
     0
  9
$ATTREQ
 70
     1
  9
$HANDLING
 70
     1
  9
$HANDSEED
  5
233
  9
$SURFTAB1
 70
     6
  9
$SURFTAB2
 70
     6
  9
$SURFTYPE
 70
     6
  9
$SURFU
 70
     6
  9
$SURFV
 70
     6
  9
$UCSNAME
  2

  9
$UCSORG
 10
0.0
 20
0.0
 30
0.0
  9
$UCSXDIR
 10
1.0
 20
0.0
 30
0.0
  9
$UCSYDIR
 10
0.0
 20
1.0
 30
0.0
  9
$PUCSNAME
  2

  9
$PUCSORG
 10
0.0
 20
0.0
 30
0.0
  9
$PUCSXDIR
 10
1.0
 20
0.0
 30
0.0
  9
$PUCSYDIR
 10
0.0
 20
1.0
 30
0.0
  9
$USERI1
 70
     0
  9
$USERI2
 70
     0
  9
$USERI3
 70
     0
  9
$USERI4
 70
     0
  9
$USERI5
 70
     0
  9
$USERR1
 40
0.0
  9
$USERR2
 40
0.0
  9
$USERR3
 40
0.0
  9
$USERR4
 40
0.0
  9
$USERR5
 40
0.0
  9
$WORLDVIEW
 70
     1
  9
$SHADEDGE
 70
     3
  9
$SHADEDIF
 70
    70
  9
$TILEMODE
 70
     1
  9
$MAXACTVP
 70
    64
  9
$PLIMCHECK
 70
     0
  9
$PEXTMIN
 10
1.000000000000000E+20
 20
1.000000000000000E+20
 30
1.000000000000000E+20
  9
$PEXTMAX
 10
-1.000000000000000E+20
 20
-1.000000000000000E+20
 30
-1.000000000000000E+20
  9
$PLIMMIN
 10
0.0
 20
0.0
  9
$PLIMMAX
 10
0.0
 20
0.0
  9
$UNITMODE
 70
     0
  9
$VISRETAIN
 70
     1
  9
$PLINEGEN
 70
     0
  9
$PSLTSCALE
 70
     1
  0
ENDSEC
  0
SECTION
  2
TABLES
  0
TABLE
  2
VPORT
 70
     1
  0
VPORT
  2
*ACTIVE
 70
     0
 10
0.0
 20
0.0
 11
1.0
 21
1.0
 12
240.6099643419829
 22
122.5
 13
0.0
 23
0.0
 14
10.0
 24
10.0
 15
10.0
 25
10.0
 16
0.0
 26
0.0
 36
1.0
 17
-134.1869158878504
 27
0.0
 37
0.0
 40
249.9000000000001
 41
0.8687595792174081
 42
50.0
 43
0.0
 44
0.0
 50
0.0
 51
0.0
 71
    16
 72
  1000
 73
     1
 74
     3
 75
     0
 76
     0
 77
     0
 78
     0
  0
ENDTAB
  0
TABLE
  2
LTYPE
 70
     1
  0
LTYPE
  2
CONTINUOUS
 70
     0
  3
Solid line
 72
    65
 73
     0
 40
0.0
  0
ENDTAB
  0
TABLE
  2
LAYER
 70
     1
  0
LAYER
  2
0
 70
     0
 62
     7
  6
CONTINUOUS
  0
ENDTAB
  0
TABLE
  2
STYLE
 70
     4
  0
STYLE
  2
STANDARD
 70
     0
 40
0.0
 41
1.0
 50
0.0
 71
     0
 42
2.5
  3
arial.ttf
  4

  0
STYLE
  2
ANNOTATIVE
 70
     0
 40
0.0
 41
1.0
 50
0.0
 71
     0
 42
2.5
  3
arial.ttf
  4

  0
STYLE
  2
DEJAVU_SANS_MONO
 70
     0
 40
0.0
 41
1.0
 50
0.0
 71
     0
 42
2.5
  3
DejaVuSansMono.ttf
  4

  0
STYLE
  2
DEJAVU_SANS_MONO0
 70
     0
 40
0.0
 41
1.0
 50
0.0
 71
     0
 42
2.5
  3
DejaVuSansMono.ttf
  4

  0
ENDTAB
  0
TABLE
  2
VIEW
 70
     0
  0
ENDTAB
  0
TABLE
  2
UCS
 70
     0
  0
ENDTAB
  0
TABLE
  2
APPID
 70
     2
  0
APPID
  2
ACAD
 70
     0
  0
APPID
  2
ACADANNOTATIVE
 70
     0
  0
ENDTAB
  0
TABLE
  2
DIMSTYLE
 70
     6
  0
DIMSTYLE
  2
ISO-25
 70
     0
  3

  4

  5

  6

  7

 40
1.0
 41
2.5
 42
0.625
 43
3.75
 44
1.25
 45
0.0
 46
0.0
 47
0.0
 48
0.0
140
2.5
141
2.5
142
0.0
143
0.03937007874016
144
1.0
145
0.0
146
1.0
147
0.625
 71
     0
 72
     0
 73
     0
 74
     0
 75
     0
 76
     0
 77
     1
 78
     8
170
     0
171
     3
172
     1
173
     0
174
     0
175
     0
176
     0
177
     0
178
     0
  0
DIMSTYLE
  2
ANNOTATIVE
 70
     0
  3

  4

  5

  6

  7

 40
0.0
 41
2.5
 42
0.625
 43
3.75
 44
1.25
 45
0.0
 46
0.0
 47
0.0
 48
0.0
140
2.5
141
2.5
142
0.0
143
0.03937007874016
144
1.0
145
0.0
146
1.0
147
0.625
 71
     0
 72
     0
 73
     0
 74
     0
 75
     0
 76
     0
 77
     1
 78
     8
170
     0
171
     3
172
     1
173
     0
174
     0
175
     0
176
     0
177
     0
178
     0
  0
DIMSTYLE
  2
DEJAVU
 70
     0
  3

  4

  5

  6

  7

 40
0.0
 41
2.5
 42
1.0
 43
5.0
 44
1.0
 45
0.0
 46
0.0
 47
0.0
 48
0.0
140
2.5
141
2.5
142
0.0
143
25.4
144
1.0
145
0.0
146
1.0
147
1.0
 71
     0
 72
     0
 73
     0
 74
     1
 75
     0
 76
     0
 77
     1
 78
     0
170
     0
171
     2
172
     1
173
     0
174
     0
175
     0
176
   256
177
   256
178
   256
  0
DIMSTYLE
  2
1-100_DEJAVU
 70
     0
  3

  4

  5

  6

  7

 40
0.0
 41
2.5
 42
1.0
 43
5.0
 44
1.0
 45
0.0
 46
0.0
 47
0.0
 48
0.0
140
2.5
141
2.5
142
0.0
143
25.4
144
100.0
145
0.0
146
1.0
147
1.0
 71
     0
 72
     0
 73
     0
 74
     1
 75
     0
 76
     0
 77
     1
 78
     0
170
     0
171
     2
172
     1
173
     0
174
     0
175
     0
176
   256
177
   256
178
   256
  0
DIMSTYLE
  2
1-200_DEJAVU
 70
     0
  3

  4

  5

  6

  7

 40
0.0
 41
2.5
 42
1.0
 43
5.0
 44
1.0
 45
0.0
 46
0.0
 47
0.0
 48
0.0
140
2.5
141
2.5
142
0.0
143
25.4
144
200.0
145
0.0
146
1.0
147
1.0
 71
     0
 72
     0
 73
     0
 74
     1
 75
     0
 76
     0
 77
     1
 78
     0
170
     0
171
     2
172
     1
173
     0
174
     0
175
     0
176
   256
177
   256
178
   256
  0
DIMSTYLE
  2
ISO-2
 70
     0
  3

  4

  5

  6

  7

 40
2.0
 41
2.5
 42
0.625
 43
3.75
 44
1.25
 45
0.0
 46
0.0
 47
0.0
 48
0.0
140
2.5
141
2.5
142
0.0
143
0.03937007874016
144
1.0
145
0.0
146
1.0
147
0.625
 71
     0
 72
     0
 73
     0
 74
     0
 75
     0
 76
     0
 77
     1
 78
     8
170
     0
171
     3
172
     1
173
     0
174
     0
175
     0
176
     0
177
     0
178
     0
  0
ENDTAB
  0
ENDSEC
  0
SECTION
  2
BLOCKS
  0
BLOCK
  8
0
  2
$MODEL_SPACE
 70
     0
 10
0.0
 20
0.0
 30
0.0
  3
$MODEL_SPACE
  1

  0
ENDBLK
  5
21
  8
0
  0
BLOCK
 67
     1
  8
0
  2
$PAPER_SPACE
 70
     0
 10
0.0
 20
0.0
 30
0.0
  3
$PAPER_SPACE
  1

  0
ENDBLK
  5
1D
 67
     1
  8
0
  0
ENDSEC
  0
SECTION
  2
ENTITIES
  0
POLYLINE
  5
F0
  8
0
 66
     1
 10
0.0
 20
0.0
 30
0.0
 70
     1
  0
VERTEX
  5
10E
  8
0
 10
34.64101615137747
 20
0.0
 30
0.0
  0
VERTEX
  5
10F
  8
0
 10
49.032032302755
 20
0.0
 30
0.0
  0
VERTEX
  5
110
  8
0
 10
49.032032302755
 20
2.0
 30
0.0
  0
VERTEX
  5
111
  8
0
 10
62.532032302755
 20
1.999999999999972
 30
0.0
  0
VERTEX
  5
112
  8
0
 10
62.532032302755
 20
0.0
 30
0.0
  0
VERTEX
  5
113
  8
0
 10
76.032032302755
 20
0.0
 30
0.0
  0
VERTEX
  5
114
  8
0
 10
76.032032302755
 20
2.0
 30
0.0
  0
VERTEX
  5
115
  8
0
 10
89.532032302755
 20
1.999999999999972
 30
0.0
  0
VERTEX
  5
116
  8
0
 10
89.532032302755
 20
0.0
 30
0.0
  0
VERTEX
  5
117
  8
0
 10
103.9230484541325
 20
0.0
 30
0.0
  0
VERTEX
  5
118
  8
0
 10
111.1185565298214
 20
12.4629855733651
 30
0.0
  0
VERTEX
  5
119
  8
0
 10
109.3865057222524
 20
13.46298557336516
 30
0.0
  0
VERTEX
  5
11A
  8
0
 10
116.1365057222524
 20
25.15432852445511
 30
0.0
  0
VERTEX
  5
11B
  8
0
 10
117.8685565298214
 20
24.15432852445505
 30
0.0
  0
VERTEX
  5
11C
  8
0
 10
124.6185565298214
 20
35.84567147554495
 30
0.0
  0
VERTEX
  5
11D
  8
0
 10
122.8865057222524
 20
36.84567147554498
 30
0.0
  0
VERTEX
  5
11E
  8
0
 10
129.6365057222524
 20
48.53701442663495
 30
0.0
  0
VERTEX
  5
11F
  8
0
 10
131.3685565298215
 20
47.5370144266349
 30
0.0
  0
VERTEX
  5
120
  8
0
 10
138.5640646055102
 20
60.0
 30
0.0
  0
VERTEX
  5
121
  8
0
 10
131.3685565298214
 20
72.46298557336527
 30
0.0
  0
VERTEX
  5
122
  8
0
 10
129.6365057222524
 20
71.46298557336523
 30
0.0
  0
VERTEX
  5
123
  8
0
 10
122.8865057222524
 20
83.15432852445517
 30
0.0
  0
VERTEX
  5
124
  8
0
 10
124.6185565298213
 20
84.15432852445515
 30
0.0
  0
VERTEX
  5
125
  8
0
 10
117.8685565298213
 20
95.84567147554509
 30
0.0
  0
VERTEX
  5
126
  8
0
 10
116.1365057222524
 20
94.84567147554512
 30
0.0
  0
VERTEX
  5
127
  8
0
 10
109.3865057222524
 20
106.537014426635
 30
0.0
  0
VERTEX
  5
128
  8
0
 10
111.1185565298213
 20
107.537014426635
 30
0.0
  0
VERTEX
  5
129
  8
0
 10
103.9230484541325
 20
120.0
 30
0.0
  0
VERTEX
  5
12A
  8
0
 10
89.532032302755
 20
120.0
 30
0.0
  0
VERTEX
  5
12B
  8
0
 10
89.532032302755
 20
118.0
 30
0.0
  0
VERTEX
  5
12C
  8
0
 10
76.032032302755
 20
118.0
 30
0.0
  0
VERTEX
  5
12D
  8
0
 10
76.032032302755
 20
120.0
 30
0.0
  0
VERTEX
  5
12E
  8
0
 10
62.532032302755
 20
120.0
 30
0.0
  0
VERTEX
  5
12F
  8
0
 10
62.532032302755
 20
118.0
 30
0.0
  0
VERTEX
  5
130
  8
0
 10
49.032032302755
 20
118.0
 30
0.0
  0
VERTEX
  5
131
  8
0
 10
49.032032302755
 20
120.0
 30
0.0
  0
VERTEX
  5
132
  8
0
 10
34.64101615137747
 20
120.0
 30
0.0
  0
VERTEX
  5
133
  8
0
 10
27.44550807568885
 20
107.5370144266351
 30
0.0
  0
VERTEX
  5
134
  8
0
 10
29.17755888325769
 20
106.5370144266351
 30
0.0
  0
VERTEX
  5
135
  8
0
 10
22.42755888325763
 20
94.84567147554512
 30
0.0
  0
VERTEX
  5
136
  8
0
 10
20.69550807568879
 20
95.84567147554509
 30
0.0
  0
VERTEX
  5
137
  8
0
 10
13.94550807568879
 20
84.15432852445518
 30
0.0
  0
VERTEX
  5
138
  8
0
 10
15.67755888325769
 20
83.15432852445517
 30
0.0
  0
VERTEX
  5
139
  8
0
 10
8.927558883257689
 20
71.46298557336523
 30
0.0
  0
VERTEX
  5
13A
  8
0
 10
7.195508075688792
 20
72.46298557336524
 30
0.0
  0
VERTEX
  5
13B
  8
0
 10
0.0
 20
60.0
 30
0.0
  0
VERTEX
  5
13C
  8
0
 10
7.195508075688622
 20
47.53701442663478
 30
0.0
  0
VERTEX
  5
13D
  8
0
 10
8.927558883257632
 20
48.53701442663487
 30
0.0
  0
VERTEX
  5
13E
  8
0
 10
15.67755888325763
 20
36.84567147554495
 30
0.0
  0
VERTEX
  5
13F
  8
0
 10
13.94550807568862
 20
35.84567147554489
 30
0.0
  0
VERTEX
  5
140
  8
0
 10
20.69550807568868
 20
24.154328524455
 30
0.0
  0
VERTEX
  5
141
  8
0
 10
22.42755888325763
 20
25.15432852445502
 30
0.0
  0
VERTEX
  5
142
  8
0
 10
29.17755888325763
 20
13.4629855733651
 30
0.0
  0
VERTEX
  5
143
  8
0
 10
27.44550807568868
 20
12.46298557336505
 30
0.0
  0
SEQEND
  5
22A
  8
0
  0
POLYLINE
  5
F1
  8
0
 66
     1
 10
0.0
 20
0.0
 30
0.0
 70
     1
  0
VERTEX
  5
144
  8
0
 10
145.2961154130788
 20
242.0000000000001
 30
0.0
  0
VERTEX
  5
145
  8
0
 10
157.9550807568875
 20
242.0000000000001
 30
0.0
  0
VERTEX
  5
146
  8
0
 10
157.9550807568875
 20
245.0000000000001
 30
0.0
  0
VERTEX
  5
147
  8
0
 10
171.4550807568875
 20
245.0000000000001
 30
0.0
  0
VERTEX
  5
148
  8
0
 10
171.4550807568875
 20
242.0000000000001
 30
0.0
  0
VERTEX
  5
149
  8
0
 10
184.9550807568875
 20
242.0000000000001
 30
0.0
  0
VERTEX
  5
14A
  8
0
 10
184.9550807568875
 20
245.0000000000001
 30
0.0
  0
VERTEX
  5
14B
  8
0
 10
198.4550807568875
 20
245.0000000000001
 30
0.0
  0
VERTEX
  5
14C
  8
0
 10
198.4550807568875
 20
242.0000000000001
 30
0.0
  0
VERTEX
  5
14D
  8
0
 10
212.8460969082651
 20
242.0000000000001
 30
0.0
  0
VERTEX
  5
14E
  8
0
 10
212.8460969082651
 20
232.5000000000001
 30
0.0
  0
VERTEX
  5
14F
  8
0
 10
211.1140461006962
 20
232.5000000000001
 30
0.0
  0
VERTEX
  5
150
  8
0
 10
211.1140461006962
 20
222.5000000000001
 30
0.0
  0
VERTEX
  5
151
  8
0
 10
212.8460969082651
 20
222.5000000000001
 30
0.0
  0
VERTEX
  5
152
  8
0
 10
212.8460969082651
 20
213.0000000000002
 30
0.0
  0
VERTEX
  5
153
  8
0
 10
198.4550807568875
 20
213.0000000000002
 30
0.0
  0
VERTEX
  5
154
  8
0
 10
198.4550807568875
 20
210.0000000000002
 30
0.0
  0
VERTEX
  5
155
  8
0
 10
184.9550807568875
 20
210.0000000000002
 30
0.0
  0
VERTEX
  5
156
  8
0
 10
184.9550807568875
 20
213.0000000000001
 30
0.0
  0
VERTEX
  5
157
  8
0
 10
171.4550807568875
 20
213.0000000000001
 30
0.0
  0
VERTEX
  5
158
  8
0
 10
171.4550807568875
 20
210.0000000000001
 30
0.0
  0
VERTEX
  5
159
  8
0
 10
157.9550807568875
 20
210.0000000000001
 30
0.0
  0
VERTEX
  5
15A
  8
0
 10
157.9550807568875
 20
213.0000000000001
 30
0.0
  0
VERTEX
  5
15B
  8
0
 10
145.2961154130788
 20
213.0000000000001
 30
0.0
  0
VERTEX
  5
15C
  8
0
 10
145.2961154130788
 20
222.5000000000001
 30
0.0
  0
VERTEX
  5
15D
  8
0
 10
143.56406460551
 20
222.5000000000001
 30
0.0
  0
VERTEX
  5
15E
  8
0
 10
143.56406460551
 20
232.5000000000001
 30
0.0
  0
VERTEX
  5
15F
  8
0
 10
145.2961154130788
 20
232.5000000000001
 30
0.0
  0
SEQEND
  5
22B
  8
0
  0
POLYLINE
  5
F2
  8
0
 66
     1
 10
0.0
 20
0.0
 30
0.0
 70
     1
  0
VERTEX
  5
160
  8
0
 10
145.296115413079
 20
203.9999999999999
 30
0.0
  0
VERTEX
  5
161
  8
0
 10
157.9550807568876
 20
203.9999999999999
 30
0.0
  0
VERTEX
  5
162
  8
0
 10
157.9550807568876
 20
206.9999999999999
 30
0.0
  0
VERTEX
  5
163
  8
0
 10
171.4550807568876
 20
206.9999999999999
 30
0.0
  0
VERTEX
  5
164
  8
0
 10
171.4550807568876
 20
203.9999999999999
 30
0.0
  0
VERTEX
  5
165
  8
0
 10
184.9550807568876
 20
203.9999999999999
 30
0.0
  0
VERTEX
  5
166
  8
0
 10
184.9550807568876
 20
206.9999999999999
 30
0.0
  0
VERTEX
  5
167
  8
0
 10
198.4550807568876
 20
206.9999999999999
 30
0.0
  0
VERTEX
  5
168
  8
0
 10
198.4550807568876
 20
203.9999999999999
 30
0.0
  0
VERTEX
  5
169
  8
0
 10
212.8460969082651
 20
203.9999999999999
 30
0.0
  0
VERTEX
  5
16A
  8
0
 10
212.8460969082651
 20
194.4999999999999
 30
0.0
  0
VERTEX
  5
16B
  8
0
 10
211.1140461006962
 20
194.4999999999999
 30
0.0
  0
VERTEX
  5
16C
  8
0
 10
211.1140461006962
 20
184.4999999999999
 30
0.0
  0
VERTEX
  5
16D
  8
0
 10
212.8460969082651
 20
184.4999999999999
 30
0.0
  0
VERTEX
  5
16E
  8
0
 10
212.8460969082651
 20
174.9999999999999
 30
0.0
  0
VERTEX
  5
16F
  8
0
 10
198.4550807568876
 20
174.9999999999999
 30
0.0
  0
VERTEX
  5
170
  8
0
 10
198.4550807568876
 20
171.9999999999999
 30
0.0
  0
VERTEX
  5
171
  8
0
 10
184.9550807568876
 20
171.9999999999999
 30
0.0
  0
VERTEX
  5
172
  8
0
 10
184.9550807568876
 20
174.9999999999999
 30
0.0
  0
VERTEX
  5
173
  8
0
 10
171.4550807568876
 20
174.9999999999999
 30
0.0
  0
VERTEX
  5
174
  8
0
 10
171.4550807568876
 20
171.9999999999999
 30
0.0
  0
VERTEX
  5
175
  8
0
 10
157.9550807568876
 20
171.9999999999999
 30
0.0
  0
VERTEX
  5
176
  8
0
 10
157.9550807568876
 20
174.9999999999999
 30
0.0
  0
VERTEX
  5
177
  8
0
 10
145.296115413079
 20
174.9999999999999
 30
0.0
  0
VERTEX
  5
178
  8
0
 10
145.296115413079
 20
184.4999999999999
 30
0.0
  0
VERTEX
  5
179
  8
0
 10
143.56406460551
 20
184.4999999999999
 30
0.0
  0
VERTEX
  5
17A
  8
0
 10
143.56406460551
 20
194.4999999999999
 30
0.0
  0
VERTEX
  5
17B
  8
0
 10
145.296115413079
 20
194.4999999999999
 30
0.0
  0
SEQEND
  5
22C
  8
0
  0
POLYLINE
  5
F3
  8
0
 66
     1
 10
0.0
 20
0.0
 30
0.0
 70
     1
  0
VERTEX
  5
17C
  8
0
 10
145.296115413079
 20
165.9999999999997
 30
0.0
  0
VERTEX
  5
17D
  8
0
 10
157.9550807568876
 20
165.9999999999997
 30
0.0
  0
VERTEX
  5
17E
  8
0
 10
157.9550807568876
 20
168.9999999999997
 30
0.0
  0
VERTEX
  5
17F
  8
0
 10
171.4550807568876
 20
168.9999999999997
 30
0.0
  0
VERTEX
  5
180
  8
0
 10
171.4550807568876
 20
165.9999999999997
 30
0.0
  0
VERTEX
  5
181
  8
0
 10
184.9550807568876
 20
165.9999999999997
 30
0.0
  0
VERTEX
  5
182
  8
0
 10
184.9550807568876
 20
168.9999999999997
 30
0.0
  0
VERTEX
  5
183
  8
0
 10
198.4550807568876
 20
168.9999999999997
 30
0.0
  0
VERTEX
  5
184
  8
0
 10
198.4550807568876
 20
165.9999999999997
 30
0.0
  0
VERTEX
  5
185
  8
0
 10
212.8460969082651
 20
165.9999999999997
 30
0.0
  0
VERTEX
  5
186
  8
0
 10
212.8460969082651
 20
156.4999999999997
 30
0.0
  0
VERTEX
  5
187
  8
0
 10
211.1140461006962
 20
156.4999999999997
 30
0.0
  0
VERTEX
  5
188
  8
0
 10
211.1140461006962
 20
146.4999999999997
 30
0.0
  0
VERTEX
  5
189
  8
0
 10
212.8460969082651
 20
146.4999999999997
 30
0.0
  0
VERTEX
  5
18A
  8
0
 10
212.8460969082651
 20
136.9999999999998
 30
0.0
  0
VERTEX
  5
18B
  8
0
 10
198.4550807568876
 20
136.9999999999998
 30
0.0
  0
VERTEX
  5
18C
  8
0
 10
198.4550807568876
 20
133.9999999999998
 30
0.0
  0
VERTEX
  5
18D
  8
0
 10
184.9550807568876
 20
133.9999999999998
 30
0.0
  0
VERTEX
  5
18E
  8
0
 10
184.9550807568876
 20
136.9999999999998
 30
0.0
  0
VERTEX
  5
18F
  8
0
 10
171.4550807568876
 20
136.9999999999998
 30
0.0
  0
VERTEX
  5
190
  8
0
 10
171.4550807568876
 20
133.9999999999998
 30
0.0
  0
VERTEX
  5
191
  8
0
 10
157.9550807568876
 20
133.9999999999998
 30
0.0
  0
VERTEX
  5
192
  8
0
 10
157.9550807568876
 20
136.9999999999998
 30
0.0
  0
VERTEX
  5
193
  8
0
 10
145.296115413079
 20
136.9999999999998
 30
0.0
  0
VERTEX
  5
194
  8
0
 10
145.296115413079
 20
146.4999999999997
 30
0.0
  0
VERTEX
  5
195
  8
0
 10
143.56406460551
 20
146.4999999999997
 30
0.0
  0
VERTEX
  5
196
  8
0
 10
143.56406460551
 20
156.4999999999997
 30
0.0
  0
VERTEX
  5
197
  8
0
 10
145.296115413079
 20
156.4999999999997
 30
0.0
  0
SEQEND
  5
22D
  8
0
  0
POLYLINE
  5
F4
  8
0
 66
     1
 10
0.0
 20
0.0
 30
0.0
 70
     1
  0
VERTEX
  5
198
  8
0
 10
145.296115413079
 20
51.99999999999898
 30
0.0
  0
VERTEX
  5
199
  8
0
 10
157.9550807568876
 20
51.99999999999898
 30
0.0
  0
VERTEX
  5
19A
  8
0
 10
157.9550807568876
 20
54.99999999999898
 30
0.0
  0
VERTEX
  5
19B
  8
0
 10
171.4550807568876
 20
54.99999999999898
 30
0.0
  0
VERTEX
  5
19C
  8
0
 10
171.4550807568876
 20
51.99999999999898
 30
0.0
  0
VERTEX
  5
19D
  8
0
 10
184.9550807568876
 20
51.99999999999898
 30
0.0
  0
VERTEX
  5
19E
  8
0
 10
184.9550807568876
 20
54.99999999999898
 30
0.0
  0
VERTEX
  5
19F
  8
0
 10
198.4550807568876
 20
54.99999999999898
 30
0.0
  0
VERTEX
  5
1A0
  8
0
 10
198.4550807568876
 20
51.99999999999898
 30
0.0
  0
VERTEX
  5
1A1
  8
0
 10
212.8460969082651
 20
51.99999999999898
 30
0.0
  0
VERTEX
  5
1A2
  8
0
 10
212.8460969082651
 20
42.49999999999898
 30
0.0
  0
VERTEX
  5
1A3
  8
0
 10
211.1140461006962
 20
42.49999999999898
 30
0.0
  0
VERTEX
  5
1A4
  8
0
 10
211.1140461006962
 20
32.49999999999898
 30
0.0
  0
VERTEX
  5
1A5
  8
0
 10
212.8460969082651
 20
32.49999999999898
 30
0.0
  0
VERTEX
  5
1A6
  8
0
 10
212.8460969082651
 20
22.99999999999909
 30
0.0
  0
VERTEX
  5
1A7
  8
0
 10
198.4550807568876
 20
22.99999999999909
 30
0.0
  0
VERTEX
  5
1A8
  8
0
 10
198.4550807568876
 20
19.99999999999909
 30
0.0
  0
VERTEX
  5
1A9
  8
0
 10
184.9550807568876
 20
19.99999999999909
 30
0.0
  0
VERTEX
  5
1AA
  8
0
 10
184.9550807568876
 20
22.99999999999898
 30
0.0
  0
VERTEX
  5
1AB
  8
0
 10
171.4550807568876
 20
22.99999999999898
 30
0.0
  0
VERTEX
  5
1AC
  8
0
 10
171.4550807568876
 20
19.99999999999898
 30
0.0
  0
VERTEX
  5
1AD
  8
0
 10
157.9550807568876
 20
19.99999999999898
 30
0.0
  0
VERTEX
  5
1AE
  8
0
 10
157.9550807568876
 20
22.99999999999898
 30
0.0
  0
VERTEX
  5
1AF
  8
0
 10
145.296115413079
 20
22.99999999999898
 30
0.0
  0
VERTEX
  5
1B0
  8
0
 10
145.296115413079
 20
32.49999999999898
 30
0.0
  0
VERTEX
  5
1B1
  8
0
 10
143.56406460551
 20
32.49999999999898
 30
0.0
  0
VERTEX
  5
1B2
  8
0
 10
143.56406460551
 20
42.49999999999898
 30
0.0
  0
VERTEX
  5
1B3
  8
0
 10
145.296115413079
 20
42.49999999999898
 30
0.0
  0
SEQEND
  5
22E
  8
0
  0
POLYLINE
  5
F5
  8
0
 66
     1
 10
0.0
 20
0.0
 30
0.0
 70
     1
  0
VERTEX
  5
1B4
  8
0
 10
145.296115413079
 20
89.99999999999875
 30
0.0
  0
VERTEX
  5
1B5
  8
0
 10
157.9550807568876
 20
89.99999999999875
 30
0.0
  0
VERTEX
  5
1B6
  8
0
 10
157.9550807568876
 20
92.99999999999875
 30
0.0
  0
VERTEX
  5
1B7
  8
0
 10
171.4550807568876
 20
92.99999999999875
 30
0.0
  0
VERTEX
  5
1B8
  8
0
 10
171.4550807568876
 20
89.99999999999875
 30
0.0
  0
VERTEX
  5
1B9
  8
0
 10
184.9550807568876
 20
89.99999999999875
 30
0.0
  0
VERTEX
  5
1BA
  8
0
 10
184.9550807568876
 20
92.99999999999875
 30
0.0
  0
VERTEX
  5
1BB
  8
0
 10
198.4550807568876
 20
92.99999999999875
 30
0.0
  0
VERTEX
  5
1BC
  8
0
 10
198.4550807568876
 20
89.99999999999875
 30
0.0
  0
VERTEX
  5
1BD
  8
0
 10
212.8460969082651
 20
89.99999999999875
 30
0.0
  0
VERTEX
  5
1BE
  8
0
 10
212.8460969082651
 20
80.49999999999875
 30
0.0
  0
VERTEX
  5
1BF
  8
0
 10
211.1140461006962
 20
80.49999999999875
 30
0.0
  0
VERTEX
  5
1C0
  8
0
 10
211.1140461006962
 20
70.49999999999875
 30
0.0
  0
VERTEX
  5
1C1
  8
0
 10
212.8460969082651
 20
70.49999999999875
 30
0.0
  0
VERTEX
  5
1C2
  8
0
 10
212.8460969082651
 20
60.99999999999886
 30
0.0
  0
VERTEX
  5
1C3
  8
0
 10
198.4550807568876
 20
60.99999999999886
 30
0.0
  0
VERTEX
  5
1C4
  8
0
 10
198.4550807568876
 20
57.99999999999886
 30
0.0
  0
VERTEX
  5
1C5
  8
0
 10
184.9550807568876
 20
57.99999999999886
 30
0.0
  0
VERTEX
  5
1C6
  8
0
 10
184.9550807568876
 20
60.99999999999886
 30
0.0
  0
VERTEX
  5
1C7
  8
0
 10
171.4550807568876
 20
60.99999999999886
 30
0.0
  0
VERTEX
  5
1C8
  8
0
 10
171.4550807568876
 20
57.99999999999886
 30
0.0
  0
VERTEX
  5
1C9
  8
0
 10
157.9550807568876
 20
57.99999999999886
 30
0.0
  0
VERTEX
  5
1CA
  8
0
 10
157.9550807568876
 20
60.99999999999886
 30
0.0
  0
VERTEX
  5
1CB
  8
0
 10
145.296115413079
 20
60.99999999999886
 30
0.0
  0
VERTEX
  5
1CC
  8
0
 10
145.296115413079
 20
70.49999999999875
 30
0.0
  0
VERTEX
  5
1CD
  8
0
 10
143.56406460551
 20
70.49999999999875
 30
0.0
  0
VERTEX
  5
1CE
  8
0
 10
143.56406460551
 20
80.49999999999875
 30
0.0
  0
VERTEX
  5
1CF
  8
0
 10
145.296115413079
 20
80.49999999999875
 30
0.0
  0
SEQEND
  5
22F
  8
0
  0
POLYLINE
  5
F6
  8
0
 66
     1
 10
0.0
 20
0.0
 30
0.0
 70
     1
  0
VERTEX
  5
1D0
  8
0
 10
145.296115413079
 20
127.9999999999985
 30
0.0
  0
VERTEX
  5
1D1
  8
0
 10
157.9550807568876
 20
127.9999999999985
 30
0.0
  0
VERTEX
  5
1D2
  8
0
 10
157.9550807568876
 20
130.9999999999985
 30
0.0
  0
VERTEX
  5
1D3
  8
0
 10
171.4550807568876
 20
130.9999999999985
 30
0.0
  0
VERTEX
  5
1D4
  8
0
 10
171.4550807568876
 20
127.9999999999985
 30
0.0
  0
VERTEX
  5
1D5
  8
0
 10
184.9550807568876
 20
127.9999999999985
 30
0.0
  0
VERTEX
  5
1D6
  8
0
 10
184.9550807568876
 20
130.9999999999985
 30
0.0
  0
VERTEX
  5
1D7
  8
0
 10
198.4550807568876
 20
130.9999999999985
 30
0.0
  0
VERTEX
  5
1D8
  8
0
 10
198.4550807568876
 20
127.9999999999985
 30
0.0
  0
VERTEX
  5
1D9
  8
0
 10
212.8460969082651
 20
127.9999999999985
 30
0.0
  0
VERTEX
  5
1DA
  8
0
 10
212.8460969082651
 20
118.4999999999985
 30
0.0
  0
VERTEX
  5
1DB
  8
0
 10
211.1140461006962
 20
118.4999999999985
 30
0.0
  0
VERTEX
  5
1DC
  8
0
 10
211.1140461006962
 20
108.4999999999985
 30
0.0
  0
VERTEX
  5
1DD
  8
0
 10
212.8460969082651
 20
108.4999999999985
 30
0.0
  0
VERTEX
  5
1DE
  8
0
 10
212.8460969082651
 20
98.99999999999864
 30
0.0
  0
VERTEX
  5
1DF
  8
0
 10
198.4550807568876
 20
98.99999999999864
 30
0.0
  0
VERTEX
  5
1E0
  8
0
 10
198.4550807568876
 20
95.99999999999864
 30
0.0
  0
VERTEX
  5
1E1
  8
0
 10
184.9550807568876
 20
95.99999999999864
 30
0.0
  0
VERTEX
  5
1E2
  8
0
 10
184.9550807568876
 20
98.99999999999864
 30
0.0
  0
VERTEX
  5
1E3
  8
0
 10
171.4550807568876
 20
98.99999999999864
 30
0.0
  0
VERTEX
  5
1E4
  8
0
 10
171.4550807568876
 20
95.99999999999864
 30
0.0
  0
VERTEX
  5
1E5
  8
0
 10
157.9550807568876
 20
95.99999999999864
 30
0.0
  0
VERTEX
  5
1E6
  8
0
 10
157.9550807568876
 20
98.99999999999864
 30
0.0
  0
VERTEX
  5
1E7
  8
0
 10
145.296115413079
 20
98.99999999999864
 30
0.0
  0
VERTEX
  5
1E8
  8
0
 10
145.296115413079
 20
108.4999999999985
 30
0.0
  0
VERTEX
  5
1E9
  8
0
 10
143.56406460551
 20
108.4999999999985
 30
0.0
  0
VERTEX
  5
1EA
  8
0
 10
143.56406460551
 20
118.4999999999985
 30
0.0
  0
VERTEX
  5
1EB
  8
0
 10
145.296115413079
 20
118.4999999999985
 30
0.0
  0
SEQEND
  5
230
  8
0
  0
CIRCLE
  5
F7
  8
0
 10
178.2050807568876
 20
221.004809471617
 30
0.0
 40
3.0
  0
CIRCLE
  5
F8
  8
0
 10
185.7050807568877
 20
233.9951905283835
 30
0.0
 40
3.0
  0
CIRCLE
  5
F9
  8
0
 10
193.2050807568876
 20
221.0048094716169
 30
0.0
 40
3.0
  0
CIRCLE
  5
FA
  8
0
 10
200.7050807568877
 20
233.9951905283835
 30
0.0
 40
3.0
  0
CIRCLE
  5
FB
  8
0
 10
170.7050807568877
 20
233.9951905283836
 30
0.0
 40
3.0
  0
CIRCLE
  5
FC
  8
0
 10
163.2050807568876
 20
221.004809471617
 30
0.0
 40
3.0
  0
CIRCLE
  5
FD
  8
0
 10
155.7050807568877
 20
233.9951905283836
 30
0.0
 40
3.0
  0
CIRCLE
  5
FE
  8
0
 10
178.2050807568876
 20
195.9951905283832
 30
0.0
 40
3.0
  0
CIRCLE
  5
FF
  8
0
 10
185.7050807568876
 20
183.0048094716166
 30
0.0
 40
3.0
  0
CIRCLE
  5
100
  8
0
 10
193.2050807568876
 20
195.9951905283831
 30
0.0
 40
3.0
  0
CIRCLE
  5
101
  8
0
 10
200.7050807568876
 20
183.0048094716165
 30
0.0
 40
3.0
  0
CIRCLE
  5
102
  8
0
 10
170.7050807568876
 20
183.0048094716167
 30
0.0
 40
3.0
  0
CIRCLE
  5
103
  8
0
 10
163.2050807568876
 20
195.9951905283833
 30
0.0
 40
3.0
  0
CIRCLE
  5
104
  8
0
 10
155.7050807568876
 20
183.0048094716167
 30
0.0
 40
3.0
  0
CIRCLE
  5
105
  8
0
 10
178.2050807568876
 20
145.0048094716166
 30
0.0
 40
3.0
  0
CIRCLE
  5
106
  8
0
 10
185.7050807568877
 20
157.9951905283831
 30
0.0
 40
3.0
  0
CIRCLE
  5
107
  8
0
 10
193.2050807568876
 20
145.0048094716166
 30
0.0
 40
3.0
  0
CIRCLE
  5
108
  8
0
 10
200.7050807568877
 20
157.9951905283831
 30
0.0
 40
3.0
  0
CIRCLE
  5
109
  8
0
 10
170.7050807568877
 20
157.9951905283832
 30
0.0
 40
3.0
  0
CIRCLE
  5
10A
  8
0
 10
163.2050807568876
 20
145.0048094716167
 30
0.0
 40
3.0
  0
CIRCLE
  5
10B
  8
0
 10
155.7050807568877
 20
157.9951905283832
 30
0.0
 40
3.0
  0
POLYLINE
  5
10C
  8
0
 66
     1
 10
0.0
 20
0.0
 30
0.0
 70
     1
  0
VERTEX
  5
1EC
  8
0
 10
160.2750807568875
 20
33.49999999999898
 30
0.0
  0
VERTEX
  5
1ED
  8
0
 10
160.2750807568875
 20
25.99999999999898
 30
0.0
 42
0.414213562373095
  0
VERTEX
  5
1EE
  8
0
 10
161.2750807568875
 20
24.99999999999898
 30
0.0
  0
VERTEX
  5
1EF
  8
0
 10
172.2750807568875
 20
24.99999999999898
 30
0.0
 42
0.414213562373095
  0
VERTEX
  5
1F0
  8
0
 10
173.2750807568875
 20
25.99999999999898
 30
0.0
  0
VERTEX
  5
1F1
  8
0
 10
173.2750807568875
 20
33.49999999999898
 30
0.0
 42
0.414213562373095
  0
VERTEX
  5
1F2
  8
0
 10
172.2750807568875
 20
34.49999999999898
 30
0.0
  0
VERTEX
  5
1F3
  8
0
 10
161.2750807568875
 20
34.49999999999898
 30
0.0
 42
0.414213562373095
  0
SEQEND
  5
231
  8
0
  0
POLYLINE
  5
10D
  8
0
 66
     1
 10
0.0
 20
0.0
 30
0.0
 70
     1
  0
VERTEX
  5
1F4
  8
0
 10
34.64101615137747
 20
125.0
 30
0.0
  0
VERTEX
  5
1F5
  8
0
 10
49.032032302755
 20
125.0
 30
0.0
  0
VERTEX
  5
1F6
  8
0
 10
49.032032302755
 20
127.0
 30
0.0
  0
VERTEX
  5
1F7
  8
0
 10
62.532032302755
 20
127.0
 30
0.0
  0
VERTEX
  5
1F8
  8
0
 10
62.532032302755
 20
125.0
 30
0.0
  0
VERTEX
  5
1F9
  8
0
 10
76.032032302755
 20
125.0
 30
0.0
  0
VERTEX
  5
1FA
  8
0
 10
76.032032302755
 20
127.0
 30
0.0
  0
VERTEX
  5
1FB
  8
0
 10
89.532032302755
 20
127.0
 30
0.0
  0
VERTEX
  5
1FC
  8
0
 10
89.532032302755
 20
125.0
 30
0.0
  0
VERTEX
  5
1FD
  8
0
 10
103.9230484541325
 20
125.0
 30
0.0
  0
VERTEX
  5
1FE
  8
0
 10
111.1185565298214
 20
137.4629855733651
 30
0.0
  0
VERTEX
  5
1FF
  8
0
 10
109.3865057222524
 20
138.4629855733652
 30
0.0
  0
VERTEX
  5
200
  8
0
 10
116.1365057222524
 20
150.1543285244551
 30
0.0
  0
VERTEX
  5
201
  8
0
 10
117.8685565298214
 20
149.1543285244551
 30
0.0
  0
VERTEX
  5
202
  8
0
 10
124.6185565298214
 20
160.8456714755449
 30
0.0
  0
VERTEX
  5
203
  8
0
 10
122.8865057222524
 20
161.845671475545
 30
0.0
  0
VERTEX
  5
204
  8
0
 10
129.6365057222524
 20
173.537014426635
 30
0.0
  0
VERTEX
  5
205
  8
0
 10
131.3685565298215
 20
172.5370144266349
 30
0.0
  0
VERTEX
  5
206
  8
0
 10
138.5640646055102
 20
185.0
 30
0.0
  0
VERTEX
  5
207
  8
0
 10
131.3685565298214
 20
197.4629855733653
 30
0.0
  0
VERTEX
  5
208
  8
0
 10
129.6365057222524
 20
196.4629855733652
 30
0.0
  0
VERTEX
  5
209
  8
0
 10
122.8865057222524
 20
208.1543285244552
 30
0.0
  0
VERTEX
  5
20A
  8
0
 10
124.6185565298213
 20
209.1543285244551
 30
0.0
  0
VERTEX
  5
20B
  8
0
 10
117.8685565298213
 20
220.8456714755451
 30
0.0
  0
VERTEX
  5
20C
  8
0
 10
116.1365057222524
 20
219.8456714755451
 30
0.0
  0
VERTEX
  5
20D
  8
0
 10
109.3865057222524
 20
231.537014426635
 30
0.0
  0
VERTEX
  5
20E
  8
0
 10
111.1185565298213
 20
232.537014426635
 30
0.0
  0
VERTEX
  5
20F
  8
0
 10
103.9230484541325
 20
245.0
 30
0.0
  0
VERTEX
  5
210
  8
0
 10
89.532032302755
 20
245.0
 30
0.0
  0
VERTEX
  5
211
  8
0
 10
89.532032302755
 20
243.0
 30
0.0
  0
VERTEX
  5
212
  8
0
 10
76.032032302755
 20
243.0
 30
0.0
  0
VERTEX
  5
213
  8
0
 10
76.032032302755
 20
245.0
 30
0.0
  0
VERTEX
  5
214
  8
0
 10
62.532032302755
 20
245.0
 30
0.0
  0
VERTEX
  5
215
  8
0
 10
62.532032302755
 20
243.0
 30
0.0
  0
VERTEX
  5
216
  8
0
 10
49.032032302755
 20
243.0
 30
0.0
  0
VERTEX
  5
217
  8
0
 10
49.032032302755
 20
245.0
 30
0.0
  0
VERTEX
  5
218
  8
0
 10
34.64101615137747
 20
245.0
 30
0.0
  0
VERTEX
  5
219
  8
0
 10
27.44550807568885
 20
232.5370144266351
 30
0.0
  0
VERTEX
  5
21A
  8
0
 10
29.17755888325769
 20
231.5370144266351
 30
0.0
  0
VERTEX
  5
21B
  8
0
 10
22.42755888325763
 20
219.8456714755451
 30
0.0
  0
VERTEX
  5
21C
  8
0
 10
20.69550807568879
 20
220.8456714755451
 30
0.0
  0
VERTEX
  5
21D
  8
0
 10
13.94550807568879
 20
209.1543285244552
 30
0.0
  0
VERTEX
  5
21E
  8
0
 10
15.67755888325769
 20
208.1543285244552
 30
0.0
  0
VERTEX
  5
21F
  8
0
 10
8.927558883257689
 20
196.4629855733652
 30
0.0
  0
VERTEX
  5
220
  8
0
 10
7.195508075688792
 20
197.4629855733652
 30
0.0
  0
VERTEX
  5
221
  8
0
 10
0.0
 20
185.0
 30
0.0
  0
VERTEX
  5
222
  8
0
 10
7.195508075688622
 20
172.5370144266348
 30
0.0
  0
VERTEX
  5
223
  8
0
 10
8.927558883257632
 20
173.5370144266349
 30
0.0
  0
VERTEX
  5
224
  8
0
 10
15.67755888325763
 20
161.8456714755449
 30
0.0
  0
VERTEX
  5
225
  8
0
 10
13.94550807568862
 20
160.8456714755449
 30
0.0
  0
VERTEX
  5
226
  8
0
 10
20.69550807568868
 20
149.154328524455
 30
0.0
  0
VERTEX
  5
227
  8
0
 10
22.42755888325763
 20
150.154328524455
 30
0.0
  0
VERTEX
  5
228
  8
0
 10
29.17755888325763
 20
138.4629855733651
 30
0.0
  0
VERTEX
  5
229
  8
0
 10
27.44550807568868
 20
137.462985573365
 30
0.0
  0
SEQEND
  5
232
  8
0
  0
ENDSEC
  0
EOF
